<?xml version="1.0" encoding="UTF-8" ?>
<!DOCTYPE svg PUBLIC "-//W3C//DTD SVG 1.1//EN" "http://www.w3.org/Graphics/SVG/1.1/DTD/svg11.dtd">
<svg width="109pt" height="39pt" viewBox="0 0 109 39" version="1.1" xmlns="http://www.w3.org/2000/svg">
<g id="#e22005ff">
<path fill="#e22005" opacity="1.00" d=" M 79.63 0.00 L 84.31 0.00 C 84.32 4.44 84.30 8.87 84.31 13.31 C 82.75 13.31 81.19 13.31 79.62 13.31 C 79.63 8.87 79.62 4.44 79.63 0.00 Z" />
<path fill="#e22005" opacity="1.00" d=" M 89.72 14.95 C 93.85 10.77 98.08 6.69 102.21 2.51 C 103.33 3.62 104.47 4.72 105.61 5.81 C 101.39 9.94 97.25 14.14 93.02 18.25 C 91.94 17.13 90.83 16.03 89.72 14.95 Z" />
<path fill="#e22005" opacity="1.00" d=" M 0.00 24.18 C 0.55 17.29 7.09 11.39 14.08 12.12 C 19.87 12.19 24.52 16.72 26.34 21.96 C 24.52 21.97 22.71 21.97 20.90 21.98 C 18.57 18.10 13.48 15.75 9.33 18.30 C 3.78 21.04 3.83 29.95 9.40 32.63 C 13.56 35.13 18.54 32.77 20.90 28.97 C 22.71 28.97 24.52 28.96 26.33 28.95 C 24.57 33.94 20.40 38.31 14.89 38.68 C 7.86 39.80 1.07 34.32 0.00 27.43 L 0.00 24.18 Z" />
<path fill="#e22005" opacity="1.00" d=" M 28.69 12.12 C 30.44 12.13 32.19 12.13 33.94 12.12 C 33.92 21.08 33.98 30.04 33.90 39.00 L 28.71 39.00 C 28.67 30.04 28.70 21.08 28.69 12.12 Z" />
<path fill="#e22005" opacity="1.00" d=" M 39.92 18.92 C 42.46 17.10 45.82 17.13 48.79 17.53 C 51.34 17.91 54.39 19.33 54.57 22.26 C 55.04 27.82 54.63 33.42 54.72 39.00 L 49.56 39.00 C 49.58 38.55 49.60 37.64 49.61 37.19 C 46.59 38.27 43.27 39.68 40.09 38.33 C 35.33 36.40 35.96 28.25 40.90 26.91 C 43.66 25.66 47.53 26.63 49.55 24.09 C 48.72 20.31 43.15 21.32 42.09 24.54 C 40.39 24.54 38.70 24.53 37.00 24.51 C 37.81 22.60 38.06 20.18 39.92 18.92 M 42.10 32.02 C 41.39 34.80 44.75 35.93 46.79 34.73 C 49.36 33.89 49.20 30.87 49.39 28.70 C 47.01 29.61 43.12 29.17 42.10 32.02 Z" />
<path fill="#e22005" opacity="1.00" d=" M 58.19 18.22 C 60.20 18.50 63.41 17.47 63.41 20.51 C 65.17 18.56 67.66 17.73 70.16 17.16 C 70.17 18.91 70.18 20.65 70.20 22.40 C 67.76 22.66 64.79 23.17 63.83 25.82 C 62.88 30.13 63.55 34.62 63.37 39.00 L 58.24 39.00 C 58.14 32.07 58.19 25.15 58.19 18.22 Z" />
<path fill="#e22005" opacity="1.00" d=" M 77.22 18.17 C 83.19 15.49 90.87 19.50 91.97 25.97 C 93.40 31.87 89.05 37.78 83.29 39.00 L 79.72 39.00 C 76.43 38.26 73.41 36.27 71.81 33.25 C 68.81 27.87 71.51 20.44 77.22 18.17 M 78.38 23.41 C 74.47 25.66 75.17 32.02 79.39 33.48 C 83.39 35.23 88.05 31.02 86.87 26.87 C 86.17 23.21 81.45 21.31 78.38 23.41 Z" />
<path fill="#e22005" opacity="1.00" d=" M 95.32 23.31 C 99.88 23.32 104.44 23.31 109.00 23.31 L 109.00 27.94 C 104.43 27.95 99.87 27.93 95.30 27.94 C 95.31 26.39 95.31 24.85 95.32 23.31 Z" />
</g>
</svg>
