<?xml version="1.0" encoding="UTF-8" ?>
<!DOCTYPE svg PUBLIC "-//W3C//DTD SVG 1.1//EN" "http://www.w3.org/Graphics/SVG/1.1/DTD/svg11.dtd">
<svg width="79pt" height="29pt" viewBox="0 0 79 29" version="1.1" xmlns="http://www.w3.org/2000/svg">
<g id="#ffffffff">
<path fill="#ffffff" opacity="1.00" d=" M 57.69 0.00 L 61.13 0.00 C 61.12 3.29 61.13 6.59 61.12 9.88 C 60.26 9.88 58.55 9.88 57.69 9.88 C 57.68 6.59 57.69 3.29 57.69 0.00 Z" />
<path fill="#ffffff" opacity="1.00" d=" M 65.00 11.10 C 68.04 8.04 71.03 4.92 74.10 1.88 C 74.93 2.69 75.74 3.52 76.53 4.37 C 73.48 7.43 70.46 10.51 67.44 13.60 C 66.62 12.78 65.81 11.94 65.00 11.10 Z" />
<path fill="#ffffff" opacity="1.00" d=" M 0.00 17.89 C 0.34 13.95 3.28 10.31 7.11 9.27 C 12.22 7.79 17.74 11.28 19.03 16.35 C 18.06 16.36 16.13 16.37 15.16 16.38 C 13.58 13.49 9.79 11.72 6.78 13.61 C 2.80 15.69 2.75 22.05 6.71 24.18 C 9.69 26.14 13.56 24.43 15.14 21.50 C 16.12 21.51 18.06 21.52 19.04 21.53 C 17.83 25.87 13.60 29.32 8.98 28.81 C 4.42 28.70 0.64 24.76 0.00 20.36 L 0.00 17.89 Z" />
<path fill="#ffffff" opacity="1.00" d=" M 20.82 9.00 C 22.09 9.01 23.36 9.01 24.63 9.01 C 24.61 15.67 24.66 22.34 24.60 29.00 L 20.83 29.00 C 20.80 22.33 20.81 15.67 20.82 9.00 Z" />
<path fill="#ffffff" opacity="1.00" d=" M 26.94 18.29 C 26.88 12.03 36.64 10.97 39.35 15.63 C 40.11 20.01 39.51 24.56 39.66 29.00 L 36.23 29.00 C 36.04 28.63 35.67 27.89 35.48 27.52 C 32.53 30.36 25.83 28.89 26.75 24.00 C 26.83 19.48 32.14 19.41 35.43 18.81 C 37.03 15.45 30.88 15.25 30.57 18.35 C 29.36 18.33 28.15 18.31 26.94 18.29 M 30.90 25.69 C 33.75 27.42 36.51 24.19 35.80 21.35 C 33.61 21.77 29.05 22.38 30.90 25.69 Z" />
<path fill="#ffffff" opacity="1.00" d=" M 45.78 15.30 C 47.13 13.88 48.90 13.01 50.86 12.87 C 50.88 14.17 50.90 15.46 50.92 16.76 C 48.87 16.64 46.45 17.62 46.07 19.86 C 45.79 22.90 46.02 25.96 45.90 29.00 L 42.17 29.00 C 42.07 23.88 42.14 18.75 42.13 13.63 C 43.02 13.62 44.79 13.61 45.68 13.60 C 45.71 14.03 45.76 14.88 45.78 15.30 Z" />
<path fill="#ffffff" opacity="1.00" d=" M 52.50 16.43 C 55.25 11.79 62.76 11.81 65.50 16.45 C 68.69 21.02 65.83 28.03 60.32 29.00 L 57.85 29.00 C 52.22 28.21 49.23 21.03 52.50 16.43 M 57.09 17.21 C 54.79 18.47 54.12 21.85 55.99 23.78 C 57.80 26.11 61.83 25.29 62.74 22.53 C 64.36 19.22 60.34 15.33 57.09 17.21 Z" />
<path fill="#ffffff" opacity="1.00" d=" M 69.06 17.31 C 72.38 17.31 75.69 17.31 79.00 17.31 L 79.00 20.82 C 75.69 20.81 72.37 20.82 69.06 20.81 C 69.06 19.64 69.07 18.48 69.06 17.31 Z" />
</g>
</svg>
