<?xml version="1.0" encoding="UTF-8" ?>
<!DOCTYPE svg PUBLIC "-//W3C//DTD SVG 1.1//EN" "http://www.w3.org/Graphics/SVG/1.1/DTD/svg11.dtd">
<svg width="656pt" height="656pt" viewBox="0 0 656 656" version="1.1" xmlns="http://www.w3.org/2000/svg">
<g id="#ffffffff">
</g>
<g id="#ee2323ff">
<path fill="#ee2323" opacity="1.00" d=" M 146.45 0.00 L 219.57 0.00 C 219.65 74.71 219.63 149.41 219.58 224.12 C 195.20 224.14 170.82 224.14 146.45 224.12 C 146.42 149.41 146.43 74.71 146.45 0.00 Z" />
<path fill="#ee2323" opacity="1.00" d=" M 482.99 67.83 C 490.42 60.04 497.92 52.32 505.40 44.58 C 522.59 62.60 540.05 80.37 557.00 98.61 C 532.64 124.76 507.74 150.45 483.05 176.30 C 483.00 177.40 482.97 178.50 482.94 179.60 C 442.11 222.08 401.37 264.65 360.71 307.28 C 342.95 289.42 325.72 271.04 308.28 252.87 C 366.75 192.43 424.73 131.51 483.00 70.88 C 483.00 70.12 482.99 68.59 482.99 67.83 Z" />
<path fill="#ee2323" opacity="1.00" d=" M 155.04 295.81 C 176.64 294.07 198.75 295.01 219.67 301.01 C 273.34 316.57 316.96 360.39 335.23 412.83 C 353.28 465.28 348.44 525.88 319.71 573.65 C 311.27 588.02 299.89 600.32 288.18 612.05 C 265.27 634.26 235.98 650.03 204.57 656.00 L 140.81 656.00 C 119.70 651.96 99.61 643.24 81.87 631.16 C 56.28 613.73 35.24 589.83 20.55 562.61 C -6.06 510.27 -6.26 445.42 19.65 392.77 C 35.06 362.55 58.48 336.26 87.35 318.33 C 107.74 305.72 131.02 297.34 155.04 295.81 M 156.43 381.65 C 142.05 383.49 128.75 390.57 117.63 399.65 C 99.71 414.61 86.79 435.87 82.99 459.00 C 78.90 483.19 83.63 509.07 97.26 529.61 C 102.32 536.79 107.36 544.09 113.96 549.98 C 138.99 573.25 178.25 579.84 209.30 565.30 C 227.55 557.14 242.17 542.21 251.89 524.92 C 271.89 490.76 268.22 444.48 243.19 413.83 C 230.14 397.59 211.63 385.11 190.86 381.70 C 179.43 380.63 167.86 380.29 156.43 381.65 Z" />
<path fill="#ee2323" opacity="1.00" d=" M 397.30 395.37 C 483.53 395.33 569.76 395.41 656.00 395.44 L 656.00 471.42 C 569.78 471.36 483.57 471.54 397.35 471.47 C 397.22 446.10 397.39 420.74 397.30 395.37 Z" />
</g>
</svg>
